# xmcd
#
# Track frame offsets: 
#        150
#        14715
#        29566
#        45968
#        62477
#        76206
#        93067
#        109506
#        127360
#        147444
#        166070
#        184697
#
# Disc length: 2683 seconds
#
# Revision: 2
# Processed by: cddbd v1.5.2PL0 Copyright (c) Steve Scherf et al.
# Submitted via: ExactAudioCopy v0.99pb4
#
DISCID=970a790c
DTITLE=TV-2 - For dig ku' jeg gøre alting
DYEAR=2007
DGENRE=Pop
TTITLE0=For dig ku' jeg gøre alting
TTITLE1=Håbløst fortabt i dig
TTITLE2=Randers station
TTITLE3=Hvis du går ud nu
TTITLE4=Mere sympati på gaderne
TTITLE5=Grib mig
TTITLE6=Prinsessen holder fridag
TTITLE7=Jesus fra Jylland
TTITLE8=Spodsbjerg-Tårs
TTITLE9=20 sekunder til farvel
TTITLE10=Op al den ting
TTITLE11=S.O.M.M.E.R.
EXTD=
EXTT0=
EXTT1=
EXTT2=
EXTT3=
EXTT4=
EXTT5=
EXTT6=
EXTT7=
EXTT8=
EXTT9=
EXTT10=
EXTT11=
PLAYORDER=
